<svg xmlns="http://www.w3.org/2000/svg" xmlns:xlink="http://www.w3.org/1999/xlink" width="1000" zoomAndPan="magnify" viewBox="0 0 750 225" height="300" preserveAspectRatio="xMidYMid meet" version="1.2"><defs/><g id="28e86b6d7d"><path style=" stroke:none;fill-rule:nonzero;fill:#03301d;fill-opacity:1;" d="M 135.726562 149.140625 L 135.734375 149.152344 L 115.160156 167.171875 C 110.945312 170.957031 105.488281 173.105469 99.804688 173.210938 L 29.253906 173.210938 C 26.644531 173.320312 24.042969 172.832031 21.652344 171.785156 C 19.21875 170.71875 17.070312 169.101562 15.378906 167.0625 C 13.6875 165.027344 12.496094 162.625 11.90625 160.046875 C 11.328125 157.515625 11.339844 154.886719 11.945312 152.359375 L 17.375 124.769531 C 17.859375 122.367188 19.132812 120.191406 21 118.589844 L 21.269531 118.363281 C 20.691406 117.492188 20.265625 116.527344 20.019531 115.511719 C 19.691406 114.164062 19.679688 112.761719 19.980469 111.410156 L 25.421875 83.769531 L 25.429688 83.730469 C 26.488281 78.769531 29.152344 74.289062 33.019531 70.980469 L 51.855469 54.480469 C 52.726562 53.484375 53.683594 52.558594 54.71875 51.714844 C 58.84375 48.34375 63.972656 46.421875 69.308594 46.25 L 69.398438 46.25 L 139.988281 46.449219 C 142.59375 46.34375 145.191406 46.832031 147.582031 47.875 C 150.011719 48.941406 152.160156 50.558594 153.855469 52.597656 C 155.546875 54.636719 156.734375 57.039062 157.324219 59.613281 C 157.90625 62.144531 157.890625 64.777344 157.285156 67.300781 L 143.804688 136.011719 L 143.785156 136.09375 C 142.601562 141.203125 139.769531 145.78125 135.726562 149.140625 Z M 135.726562 149.140625 "/><path style=" stroke:none;fill-rule:nonzero;fill:#86ee02;fill-opacity:1;" d="M 138.886719 52.800781 C 140.742188 52.707031 142.589844 53.046875 144.289062 53.796875 C 145.988281 54.542969 147.488281 55.675781 148.671875 57.109375 C 149.851562 58.539062 150.683594 60.222656 151.09375 62.03125 C 151.507812 63.839844 151.488281 65.71875 151.042969 67.515625 L 137.621094 136.273438 C 136.675781 140.359375 134.40625 144.015625 131.160156 146.679688 C 127.917969 149.339844 123.882812 150.855469 119.683594 150.988281 L 49.445312 150.988281 C 47.589844 151.082031 45.738281 150.742188 44.039062 149.992188 C 42.339844 149.246094 40.835938 148.113281 39.652344 146.683594 C 38.472656 145.253906 37.636719 143.566406 37.222656 141.761719 C 36.808594 139.953125 36.820312 138.074219 37.257812 136.273438 L 42.679688 108.457031 C 42.996094 107.097656 43.757812 105.882812 44.835938 105.003906 C 45.917969 104.121094 47.261719 103.617188 48.660156 103.578125 C 61.476562 104.03125 73.785156 104.992188 85.261719 109.113281 L 87.792969 125.019531 C 87.855469 125.402344 88.058594 125.75 88.363281 125.996094 C 88.667969 126.238281 89.050781 126.359375 89.441406 126.335938 C 89.886719 126.328125 90.324219 126.203125 90.707031 125.972656 C 91.089844 125.738281 91.40625 125.410156 91.617188 125.019531 L 100.28125 109.113281 L 117.609375 103.652344 C 118.027344 103.519531 118.40625 103.277344 118.703125 102.953125 C 119 102.628906 119.207031 102.234375 119.304688 101.804688 C 119.40625 101.429688 119.359375 101.027344 119.175781 100.679688 C 118.992188 100.332031 118.6875 100.066406 118.316406 99.933594 L 103.117188 94.5 L 100.585938 78.59375 C 100.523438 78.207031 100.324219 77.855469 100.019531 77.609375 C 99.714844 77.363281 99.332031 77.234375 98.941406 77.253906 C 98.488281 77.261719 98.050781 77.394531 97.667969 77.628906 C 97.285156 77.863281 96.972656 78.195312 96.761719 78.59375 L 88.097656 94.5 C 75.535156 98.09375 62.539062 99.949219 49.46875 100.011719 C 48.839844 100.066406 48.210938 99.96875 47.628906 99.730469 C 47.042969 99.492188 46.527344 99.121094 46.117188 98.644531 C 45.707031 98.167969 45.414062 97.601562 45.265625 96.988281 C 45.117188 96.378906 45.117188 95.742188 45.265625 95.128906 L 50.683594 67.316406 C 51.621094 63.230469 53.886719 59.574219 57.128906 56.910156 C 60.367188 54.25 64.398438 52.730469 68.59375 52.597656 Z M 138.886719 52.800781 "/><g style="fill:#1e2939;fill-opacity:1;"><g transform="translate(179.569175, 153.404776)"><path style="stroke:none" d="M 37.6875 0 L 19.21875 0 L 2.546875 -70.203125 L 18.90625 -70.203125 L 29.21875 -22.71875 L 30.546875 -22.71875 L 43.921875 -70.203125 L 59.203125 -70.203125 L 73.015625 -22.71875 L 74.34375 -22.71875 L 84.28125 -70.203125 L 100.1875 -70.203125 L 83.703125 0 L 65.1875 0 L 51.875 -47.796875 L 50.546875 -47.796875 Z M 37.6875 0 "/></g></g><g style="fill:#1e2939;fill-opacity:1;"><g transform="translate(281.156693, 153.404776)"><path style="stroke:none" d="M 27.375 1.34375 C 22.875 1.34375 18.96875 0.515625 15.65625 -1.140625 C 12.34375 -2.796875 9.796875 -5.222656 8.015625 -8.421875 C 6.234375 -11.628906 5.34375 -15.484375 5.34375 -19.984375 C 5.34375 -24.140625 6.234375 -27.628906 8.015625 -30.453125 C 9.796875 -33.273438 12.550781 -35.585938 16.28125 -37.390625 C 20.019531 -39.191406 24.90625 -40.582031 30.9375 -41.5625 C 35.132812 -42.238281 38.328125 -42.976562 40.515625 -43.78125 C 42.703125 -44.59375 44.175781 -45.507812 44.9375 -46.53125 C 45.695312 -47.550781 46.078125 -48.84375 46.078125 -50.40625 C 46.078125 -52.65625 45.289062 -54.375 43.71875 -55.5625 C 42.15625 -56.75 39.550781 -57.34375 35.90625 -57.34375 C 32 -57.34375 28.285156 -56.472656 24.765625 -54.734375 C 21.242188 -52.992188 18.1875 -50.703125 15.59375 -47.859375 L 14.328125 -47.859375 L 6.9375 -59 C 10.5 -62.945312 14.847656 -66.023438 19.984375 -68.234375 C 25.117188 -70.441406 30.722656 -71.546875 36.796875 -71.546875 C 46.085938 -71.546875 52.8125 -69.570312 56.96875 -65.625 C 61.125 -61.675781 63.203125 -56.078125 63.203125 -48.828125 L 63.203125 -18.328125 C 63.203125 -15.191406 64.582031 -13.625 67.34375 -13.625 C 68.40625 -13.625 69.445312 -13.8125 70.46875 -14.1875 L 71.359375 -13.9375 L 72.625 -1.65625 C 71.644531 -1.019531 70.285156 -0.5 68.546875 -0.09375 C 66.804688 0.3125 64.898438 0.515625 62.828125 0.515625 C 58.617188 0.515625 55.335938 -0.289062 52.984375 -1.90625 C 50.628906 -3.519531 48.945312 -6.046875 47.9375 -9.484375 L 46.59375 -9.609375 C 43.15625 -2.304688 36.75 1.34375 27.375 1.34375 Z M 32.96875 -11.84375 C 37.039062 -11.84375 40.296875 -13.207031 42.734375 -15.9375 C 45.179688 -18.675781 46.40625 -22.488281 46.40625 -27.375 L 46.40625 -34.5 L 45.1875 -34.75 C 44.132812 -33.90625 42.75 -33.195312 41.03125 -32.625 C 39.3125 -32.050781 36.835938 -31.488281 33.609375 -30.9375 C 29.785156 -30.300781 27.035156 -29.207031 25.359375 -27.65625 C 23.679688 -26.101562 22.84375 -23.90625 22.84375 -21.0625 C 22.84375 -18.050781 23.734375 -15.757812 25.515625 -14.1875 C 27.304688 -12.625 29.789062 -11.84375 32.96875 -11.84375 Z M 32.96875 -11.84375 "/></g></g><g style="fill:#1e2939;fill-opacity:1;"><g transform="translate(353.846509, 153.404776)"><path style="stroke:none" d="M 15.53125 29.796875 C 12.519531 29.796875 9.789062 29.5625 7.34375 29.09375 C 4.90625 28.625 2.925781 28.007812 1.40625 27.25 L 4.203125 12.984375 L 5.34375 12.609375 C 6.40625 13.160156 7.71875 13.601562 9.28125 13.9375 C 10.851562 14.28125 12.46875 14.453125 14.125 14.453125 C 16.96875 14.453125 19.332031 14.078125 21.21875 13.328125 C 23.113281 12.585938 24.71875 11.359375 26.03125 9.640625 C 27.34375 7.921875 28.507812 5.535156 29.53125 2.484375 L 1.53125 -70.203125 L 19.984375 -70.203125 L 37.421875 -21.390625 L 38.953125 -21.390625 L 55.953125 -70.203125 L 73.90625 -70.203125 L 45.703125 4.390625 C 43.453125 10.421875 40.976562 15.269531 38.28125 18.9375 C 35.59375 22.601562 32.410156 25.328125 28.734375 27.109375 C 25.066406 28.898438 20.664062 29.796875 15.53125 29.796875 Z M 15.53125 29.796875 "/></g><g transform="translate(429.20968, 153.404776)"><path style="stroke:none" d="M 10.125 28.453125 L 10.125 -70.203125 L 27.75 -70.203125 L 27.75 -61.046875 L 29.09375 -60.78125 C 31.164062 -64.351562 33.941406 -67.039062 37.421875 -68.84375 C 40.898438 -70.644531 44.976562 -71.546875 49.65625 -71.546875 C 55.289062 -71.546875 60.21875 -70.207031 64.4375 -67.53125 C 68.664062 -64.863281 71.957031 -60.800781 74.3125 -55.34375 C 76.664062 -49.894531 77.84375 -43.140625 77.84375 -35.078125 C 77.84375 -27.054688 76.601562 -20.328125 74.125 -14.890625 C 71.644531 -9.460938 68.195312 -5.398438 63.78125 -2.703125 C 59.363281 -0.00390625 54.269531 1.34375 48.5 1.34375 C 44.132812 1.34375 40.359375 0.609375 37.171875 -0.859375 C 33.992188 -2.328125 31.300781 -4.609375 29.09375 -7.703125 L 27.75 -7.453125 L 27.75 28.453125 Z M 43.609375 -13.625 C 48.867188 -13.625 52.851562 -15.34375 55.5625 -18.78125 C 58.28125 -22.21875 59.640625 -27.648438 59.640625 -35.078125 C 59.640625 -42.503906 58.28125 -47.945312 55.5625 -51.40625 C 52.851562 -54.863281 48.867188 -56.59375 43.609375 -56.59375 C 38.679688 -56.59375 34.773438 -54.804688 31.890625 -51.234375 C 29.003906 -47.671875 27.5625 -42.285156 27.5625 -35.078125 C 27.5625 -27.898438 29.003906 -22.53125 31.890625 -18.96875 C 34.773438 -15.40625 38.679688 -13.625 43.609375 -13.625 Z M 43.609375 -13.625 "/></g><g transform="translate(513.293084, 153.404776)"><path style="stroke:none" d="M 10.125 0 L 10.125 -70.203125 L 27.25 -70.203125 L 27.25 -59.765625 L 28.578125 -59.515625 C 30.273438 -63.421875 32.503906 -66.285156 35.265625 -68.109375 C 38.023438 -69.929688 41.375 -70.84375 45.3125 -70.84375 C 49.300781 -70.84375 52.335938 -70.164062 54.421875 -68.8125 L 51.4375 -53.59375 L 50.09375 -53.34375 C 48.945312 -53.8125 47.84375 -54.148438 46.78125 -54.359375 C 45.71875 -54.566406 44.425781 -54.671875 42.90625 -54.671875 C 37.976562 -54.671875 34.21875 -52.941406 31.625 -49.484375 C 29.039062 -46.023438 27.75 -40.476562 27.75 -32.84375 L 27.75 0 Z M 10.125 0 "/></g><g transform="translate(568.351482, 153.404776)"><path style="stroke:none" d="M 18.90625 -78.609375 C 15.71875 -78.609375 13.125 -79.570312 11.125 -81.5 C 9.132812 -83.4375 8.140625 -85.929688 8.140625 -88.984375 C 8.140625 -91.992188 9.132812 -94.460938 11.125 -96.390625 C 13.125 -98.328125 15.71875 -99.296875 18.90625 -99.296875 C 21.03125 -99.296875 22.914062 -98.847656 24.5625 -97.953125 C 26.21875 -97.066406 27.503906 -95.847656 28.421875 -94.296875 C 29.335938 -92.753906 29.796875 -90.984375 29.796875 -88.984375 C 29.796875 -86.992188 29.335938 -85.210938 28.421875 -83.640625 C 27.503906 -82.066406 26.21875 -80.832031 24.5625 -79.9375 C 22.914062 -79.050781 21.03125 -78.609375 18.90625 -78.609375 Z M 10.125 0 L 10.125 -70.203125 L 27.75 -70.203125 L 27.75 0 Z M 10.125 0 "/></g><g transform="translate(606.16037, 153.404776)"><path style="stroke:none" d="M 10.125 0 L 10.125 -70.203125 L 27.046875 -70.203125 L 27.046875 -59.890625 L 28.390625 -59.578125 C 32.753906 -67.554688 39.84375 -71.546875 49.65625 -71.546875 C 57.757812 -71.546875 63.707031 -69.335938 67.5 -64.921875 C 71.300781 -60.515625 73.203125 -54.085938 73.203125 -45.640625 L 73.203125 0 L 55.5625 0 L 55.5625 -43.46875 C 55.5625 -48.132812 54.628906 -51.5 52.765625 -53.5625 C 50.898438 -55.625 47.910156 -56.65625 43.796875 -56.65625 C 38.742188 -56.65625 34.804688 -55.019531 31.984375 -51.75 C 29.160156 -48.476562 27.75 -43.34375 27.75 -36.34375 L 27.75 0 Z M 10.125 0 "/></g></g><g style="fill:#1e2939;fill-opacity:1;"><g transform="translate(687.888675, 153.404776)"><path style="stroke:none" d="M 48.4375 -16.734375 L 53.015625 -3.6875 C 51.109375 -2.125 48.710938 -0.894531 45.828125 0 C 42.941406 0.894531 39.675781 1.34375 36.03125 1.34375 C 28.4375 1.34375 22.664062 -0.722656 18.71875 -4.859375 C 14.769531 -9.003906 12.796875 -15.023438 12.796875 -22.921875 L 12.796875 -56.265625 L 2.09375 -56.265625 L 2.09375 -70.265625 L 12.796875 -70.265625 L 12.796875 -83.953125 L 30.421875 -86.828125 L 30.421875 -70.265625 L 50.34375 -70.265625 L 50.34375 -56.265625 L 30.421875 -56.265625 L 30.421875 -24.1875 C 30.421875 -20.707031 31.140625 -18.171875 32.578125 -16.578125 C 34.023438 -14.984375 36.128906 -14.1875 38.890625 -14.1875 C 42.035156 -14.1875 44.773438 -15.035156 47.109375 -16.734375 Z M 48.4375 -16.734375 "/></g></g></g></svg>